<svg width="195" height="276" viewBox="0 0 195 276" fill="none" xmlns="http://www.w3.org/2000/svg">
<path d="M0 219.487C0 208.272 1.99794 198.476 5.99387 190.098C10.1185 181.719 15.7256 175.274 22.8154 170.762C29.9051 166.251 37.7676 163.995 46.4041 163.995C53.3648 163.995 59.552 165.478 64.9658 168.442C70.5087 171.278 74.8267 175.21 77.9203 180.237V130.739H116.01V273.818H77.9203V258.737C74.9558 263.764 70.7663 267.76 65.3525 270.725C59.9387 273.689 53.5581 275.172 46.2108 275.172C37.5743 275.172 29.7117 272.916 22.622 268.404C15.6614 263.893 10.1185 257.448 5.99387 249.069C1.99794 240.562 0 230.701 0 219.487ZM67.1291 219.487C67.1291 212.526 65.1955 207.048 61.3285 203.052C57.5906 199.056 52.9502 197.058 47.4073 197.058C41.7359 197.058 37.0306 199.056 33.2927 203.052C29.5548 206.919 27.6855 212.397 27.6855 219.487C27.6855 226.447 29.5548 231.99 33.2927 236.115C37.0306 240.111 41.7359 242.109 47.4073 242.109C52.9502 242.109 57.5906 240.111 61.3285 236.115C65.1955 232.119 67.1291 226.577 67.1291 219.487Z" fill="url(#paint0_linear_36_70)"/>
<path d="M116.024 16.4863C118.997 11.4434 123.2 7.43521 128.631 4.461C134.061 1.48698 140.462 0 147.832 0C156.496 0 164.319 2.26281 171.301 6.78848C178.413 11.3143 183.973 17.7792 187.981 26.1841C192.119 34.5891 194.188 44.4161 194.188 55.6656C194.188 66.915 192.119 76.8068 187.981 85.3409C183.973 93.7459 178.413 100.211 171.301 104.737C164.319 109.262 156.496 111.525 147.832 111.525C140.462 111.525 134.061 110.038 128.631 107.064C123.329 104.09 119.127 100.082 116.024 95.0387V162.148H78.008V1.3577L116.024 1.3577V16.4863ZM166.251 55.6656C166.251 48.554 164.312 43.0584 160.433 39.1792C156.683 35.171 152.028 33.1666 146.468 33.1666C140.907 33.1666 136.188 35.171 132.309 39.1792C128.559 43.1875 126.684 48.6831 126.684 55.6656C126.684 62.7771 128.559 68.3376 132.309 72.3458C136.188 76.3541 140.907 78.3585 146.468 78.3585C152.028 78.3585 156.683 76.3541 160.433 72.3458C164.312 68.2079 166.251 62.648 166.251 55.6656Z" fill="url(#paint1_linear_36_70)"/>
<defs>
<linearGradient id="paint0_linear_36_70" x1="195.377" y1="382.919" x2="195.377" y2="-23.1778" gradientUnits="userSpaceOnUse">
<stop stop-color="#36BAB2"/>
<stop offset="0.556502" stop-color="#335CED"/>
</linearGradient>
<linearGradient id="paint1_linear_36_70" x1="174.163" y1="-29.239" x2="174.163" y2="110.167" gradientUnits="userSpaceOnUse">
<stop stop-color="#36BAB2"/>
<stop offset="1" stop-color="#335CED"/>
</linearGradient>
</defs>
</svg>
