<svg width="653" height="290" viewBox="0 0 653 290" fill="none" xmlns="http://www.w3.org/2000/svg">
<path d="M40.2653 206.875C40.2653 198.376 41.7794 190.952 44.8078 184.602C47.9337 178.252 52.1832 173.368 57.5563 169.949C62.9293 166.53 68.8881 164.82 75.4334 164.82C80.7086 164.82 85.3977 165.944 89.5007 168.19C93.7015 170.34 96.9739 173.319 99.3184 177.129V139.616H128.186V248.051H99.3184V236.622C97.0717 240.432 93.8967 243.46 89.7937 245.707C85.6908 247.953 80.8552 249.077 75.2869 249.077C68.7415 249.077 62.7828 247.367 57.4097 243.948C52.1345 240.529 47.9337 235.645 44.8078 229.295C41.7794 222.848 40.2653 215.374 40.2653 206.875ZM91.1401 206.875C91.1401 201.6 89.6748 197.448 86.7441 194.42C83.9113 191.391 80.3945 189.877 76.1937 189.877C71.8955 189.877 68.3295 191.391 65.4967 194.42C62.6639 197.351 61.2472 201.502 61.2472 206.875C61.2472 212.151 62.6639 216.351 65.4967 219.477C68.3295 222.506 71.8955 224.02 76.1937 224.02C80.3945 224.02 83.9113 222.506 86.7441 219.477C89.6748 216.449 91.1401 212.248 91.1401 206.875Z" fill="#335CED"/>
<path d="M228.951 165.588V248.051H199.994V236.292C197.544 240.016 194.163 243.053 189.851 245.405C185.54 247.659 180.59 248.786 175.005 248.786C165.401 248.786 157.806 245.65 152.221 239.379C146.733 233.009 143.989 224.385 143.989 213.508V165.588H172.653V209.833C172.653 214.537 173.878 218.261 176.328 221.004C178.876 223.65 182.207 224.973 186.323 224.973C190.537 224.973 193.869 223.65 196.319 221.004C198.769 218.261 199.994 214.537 199.994 209.833V165.588H228.951ZM353.094 164.853C363.482 164.853 371.615 167.989 377.495 174.261C383.473 180.532 386.461 189.107 386.461 199.984V248.051H357.651V203.806C357.651 199.396 356.426 195.966 353.976 193.517C351.526 191.067 348.194 189.842 343.98 189.842C339.767 189.842 336.435 191.067 333.985 193.517C331.535 195.966 330.31 199.396 330.31 203.806V248.051H301.499V203.806C301.499 199.396 300.275 195.966 297.824 193.517C295.473 191.067 292.19 189.842 287.976 189.842C283.664 189.842 280.284 191.067 277.833 193.517C275.384 195.966 274.159 199.396 274.159 203.806V248.051H245.348V165.588H274.159V176.465C276.707 172.938 279.99 170.145 284.007 168.087C288.123 165.931 292.827 164.853 298.118 164.853C304.194 164.853 309.584 166.176 314.288 168.822C319.09 171.468 322.862 175.192 325.606 179.993C328.546 175.486 332.417 171.86 337.219 169.116C342.021 166.274 347.313 164.853 353.094 164.853ZM509.993 164.853C520.379 164.853 528.514 167.989 534.394 174.261C540.37 180.532 543.361 189.107 543.361 199.984V248.051H514.55V203.806C514.55 199.396 513.324 195.966 510.875 193.517C508.422 191.067 505.092 189.842 500.88 189.842C496.663 189.842 493.332 191.067 490.884 193.517C488.431 195.966 487.209 199.396 487.209 203.806V248.051H458.398V203.806C458.398 199.396 457.173 195.966 454.723 193.517C452.371 191.067 449.088 189.842 444.874 189.842C440.562 189.842 437.181 191.067 434.732 193.517C432.282 195.966 431.057 199.396 431.057 203.806V248.051H402.246V165.588H431.057V176.465C433.604 172.938 436.888 170.145 440.905 168.087C445.021 165.931 449.725 164.853 455.017 164.853C461.09 164.853 466.483 166.176 471.187 168.822C475.987 171.468 479.759 175.192 482.505 179.993C485.445 175.486 489.313 171.86 494.118 169.116C498.918 166.274 504.21 164.853 509.993 164.853ZM647.928 165.588L595.598 287.298H564.289L583.986 244.523L550.178 165.588H582.222L599.567 212.332L616.325 165.588H647.928Z" fill="#F5F5F5"/>
<path d="M47.3319 125.054C35.2784 125.054 25.3808 122.212 17.6392 116.529C9.89757 110.747 5.73275 102.515 5.14478 91.834H35.8664C36.1604 95.4597 37.2383 98.1055 39.1002 99.7716C40.9621 101.438 43.363 102.271 46.3029 102.271C48.9488 102.271 51.1045 101.633 52.7706 100.36C54.5345 98.9875 55.4165 97.1257 55.4165 94.7738C55.4165 91.7361 53.9957 89.3842 51.1537 87.7182C48.3117 86.0521 43.706 84.1903 37.3363 82.1324C30.5746 79.8784 25.0869 77.7226 20.8731 75.6647C16.7572 73.509 13.1314 70.4221 9.99555 66.4041C6.95771 62.2883 5.43876 56.9474 5.43876 50.3819C5.43876 43.7182 7.1047 38.0344 10.4365 33.3306C13.7684 28.5289 18.3742 24.903 24.2539 22.4531C30.1336 20.0033 36.7973 18.7783 44.245 18.7783C56.2984 18.7783 65.9022 21.6202 73.0557 27.3039C80.3075 32.8897 84.178 40.7783 84.6681 50.9698H53.3586C53.2607 47.8338 52.2805 45.4821 50.4187 43.9142C48.6548 42.3462 46.3521 41.5623 43.51 41.5623C41.3541 41.5623 39.5902 42.1992 38.2183 43.4732C36.8463 44.7471 36.1604 46.56 36.1604 48.9119C36.1604 50.872 36.8953 52.5868 38.3653 54.0567C39.9332 55.4288 41.8441 56.6534 44.098 57.7315C46.3521 58.7113 49.6837 59.9856 54.0935 61.5534C60.6591 63.8074 66.0492 66.061 70.2628 68.315C74.5748 70.4708 78.2496 73.5577 81.2873 77.5756C84.4233 81.4953 85.9911 86.4931 85.9911 92.5689C85.9911 98.7427 84.4233 104.279 81.2873 109.179C78.2496 114.079 73.7906 117.95 67.9109 120.792C62.129 123.634 55.2695 125.054 47.3319 125.054ZM228.105 15.2505V124.026H199.294V15.2505H228.105ZM259.064 33.9186C253.969 33.9186 249.853 32.5467 246.717 29.8028C243.679 26.9609 242.16 23.4331 242.16 19.2193C242.16 14.9075 243.679 11.3307 246.717 8.48877C249.853 5.64688 253.969 4.22595 259.064 4.22595C264.062 4.22595 268.08 5.64688 271.118 8.48877C274.254 11.3307 275.821 14.9075 275.821 19.2193C275.821 23.4331 274.254 26.9609 271.118 29.8028C268.08 32.5467 264.062 33.9186 259.064 33.9186ZM273.323 41.5623V124.026H244.512V41.5623H273.323ZM338.385 99.4776V124.026H325.89C304.821 124.026 294.287 113.589 294.287 92.7159V65.5222H284.144V41.5623H294.287V21.5712H323.244V41.5623H338.238V65.5222H323.244V93.1569C323.244 95.411 323.734 97.0279 324.714 98.0077C325.792 98.9875 327.556 99.4776 330.006 99.4776H338.385Z" fill="#F5F5F5"/>
<path d="M128.196 53.028C130.449 49.2062 133.634 46.1685 137.75 43.9144C141.866 41.6605 146.717 40.5336 152.303 40.5336C158.868 40.5336 164.797 42.2485 170.089 45.6783C175.478 49.1083 179.692 54.0078 182.73 60.3777C185.866 66.7475 187.434 74.195 187.434 82.7206C187.434 91.2462 185.866 98.7429 182.73 105.211C179.692 111.58 175.478 116.48 170.089 119.91C164.797 123.34 158.868 125.055 152.303 125.055C146.717 125.055 141.866 123.928 137.75 121.674C133.732 119.42 130.548 116.382 128.196 112.56V163.42H99.385V41.5625H128.196V53.028ZM166.262 82.7206C166.262 77.331 164.792 73.1661 161.852 70.2262C159.01 67.1885 155.482 65.6694 151.268 65.6694C147.054 65.6694 143.478 67.1885 140.538 70.2262C137.696 73.2639 136.275 77.4289 136.275 82.7206C136.275 88.1102 137.696 92.3244 140.538 95.3621C143.478 98.3998 147.054 99.9189 151.268 99.9189C155.482 99.9189 159.01 98.3998 161.852 95.3621C164.792 92.2261 166.262 88.0124 166.262 82.7206Z" fill="#335CED"/>
</svg>
